<svg viewBox="0 0 128 128" xmlns="http://www.w3.org/2000/svg">
  <!-- Background Circle with Gradient -->
  <defs>
    <linearGradient id="backgroundGradient" x1="0%" y1="0%" x2="100%" y2="100%">
      <stop offset="0%" style="stop-color:#667eea;stop-opacity:1" />
      <stop offset="50%" style="stop-color:#764ba2;stop-opacity:1" />
      <stop offset="100%" style="stop-color:#f093fb;stop-opacity:1" />
    </linearGradient>
    
    <linearGradient id="iconGradient" x1="0%" y1="0%" x2="100%" y2="100%">
      <stop offset="0%" style="stop-color:#ffffff;stop-opacity:0.95" />
      <stop offset="100%" style="stop-color:#f8fafc;stop-opacity:0.9" />
    </linearGradient>
    
    <!-- Subtle Shadow -->
    <filter id="shadow" x="-50%" y="-50%" width="200%" height="200%">
      <feDropShadow dx="0" dy="2" stdDeviation="3" flood-color="rgba(0,0,0,0.2)"/>
    </filter>
  </defs>
  
  <!-- Main Background Circle -->
  <circle cx="64" cy="64" r="56" fill="url(#backgroundGradient)" filter="url(#shadow)"/>
  
  <!-- Inner Circle for Depth -->
  <circle cx="64" cy="64" r="52" fill="none" stroke="rgba(255,255,255,0.2)" stroke-width="1"/>
  
  <!-- Main Icon - Stylized Dashboard/Grid -->
  <g fill="url(#iconGradient)" transform="translate(64, 64)">
    <!-- Central Hub Circle -->
    <circle cx="0" cy="0" r="6" fill="url(#iconGradient)" opacity="0.9"/>
    
    <!-- Dashboard Grid Elements -->
    <!-- Top Left: Tasks/Checklist -->
    <g transform="translate(-18, -18)">
      <rect x="-8" y="-6" width="16" height="2" rx="1" opacity="0.8"/>
      <rect x="-8" y="-2" width="12" height="2" rx="1" opacity="0.7"/>
      <rect x="-8" y="2" width="14" height="2" rx="1" opacity="0.6"/>
      <circle cx="-6" cy="-5" r="1.5" fill="none" stroke="currentColor" stroke-width="1"/>
      <circle cx="-6" cy="-1" r="1.5" fill="currentColor"/>
    </g>
    
    <!-- Top Right: Weather -->
    <g transform="translate(18, -18)">
      <circle cx="0" cy="-2" r="4" fill="none" stroke="currentColor" stroke-width="1.5" opacity="0.7"/>
      <path d="M-6,2 Q-4,0 -2,2 Q0,0 2,2 Q4,0 6,2" fill="none" stroke="currentColor" stroke-width="1.5" opacity="0.6"/>
    </g>
    
    <!-- Bottom Left: Notes -->
    <g transform="translate(-18, 18)">
      <rect x="-6" y="-6" width="12" height="12" rx="2" fill="none" stroke="currentColor" stroke-width="1.5" opacity="0.7"/>
      <line x1="-3" y1="-2" x2="3" y2="-2" stroke="currentColor" stroke-width="1" opacity="0.6"/>
      <line x1="-3" y1="1" x2="3" y2="1" stroke="currentColor" stroke-width="1" opacity="0.5"/>
      <line x1="-3" y1="4" x2="1" y2="4" stroke="currentColor" stroke-width="1" opacity="0.4"/>
    </g>
    
    <!-- Bottom Right: Links -->
    <g transform="translate(18, 18)">
      <rect x="-3" y="-6" width="6" height="4" rx="1" fill="none" stroke="currentColor" stroke-width="1" opacity="0.7"/>
      <rect x="-3" y="-1" width="6" height="4" rx="1" fill="none" stroke="currentColor" stroke-width="1" opacity="0.6"/>
      <rect x="-3" y="4" width="6" height="4" rx="1" fill="none" stroke="currentColor" stroke-width="1" opacity="0.5"/>
    </g>
    
    <!-- Connecting Lines (subtle) -->
    <line x1="-12" y1="-12" x2="-4" y2="-4" stroke="currentColor" stroke-width="0.5" opacity="0.3"/>
    <line x1="12" y1="-12" x2="4" y2="-4" stroke="currentColor" stroke-width="0.5" opacity="0.3"/>
    <line x1="-12" y1="12" x2="-4" y2="4" stroke="currentColor" stroke-width="0.5" opacity="0.3"/>
    <line x1="12" y1="12" x2="4" y2="4" stroke="currentColor" stroke-width="0.5" opacity="0.3"/>
  </g>
  
  <!-- Subtle Highlight -->
  <circle cx="64" cy="64" r="56" fill="none" stroke="rgba(255,255,255,0.1)" stroke-width="2"/>
</svg>